<?xml version="1.0" encoding="UTF-8" standalone="no"?>
<!DOCTYPE svg PUBLIC "-//W3C//DTD SVG 1.1//EN"
 "http://www.w3.org/Graphics/SVG/1.1/DTD/svg11.dtd">
<!-- Generated by graphviz version 2.40.1 (20161225.0304)
 -->
<!-- Title: G Pages: 1 -->
<svg width="758pt" height="133pt"
 viewBox="0.00 0.00 758.00 132.74" xmlns="http://www.w3.org/2000/svg" xmlns:xlink="http://www.w3.org/1999/xlink">
<g id="graph0" class="graph" transform="scale(1 1) rotate(0) translate(4 128.7401)">
<title>G</title>
<polygon fill="#ffffff" stroke="transparent" points="-4,4 -4,-128.7401 754,-128.7401 754,4 -4,4"/>
<g id="clust1" class="cluster">
<title>cluster_G</title>
<path fill="#808080" fill-opacity="0.094118" stroke="#000000" d="M20,-8C20,-8 730,-8 730,-8 736,-8 742,-14 742,-20 742,-20 742,-104.7401 742,-104.7401 742,-110.7401 736,-116.7401 730,-116.7401 730,-116.7401 20,-116.7401 20,-116.7401 14,-116.7401 8,-110.7401 8,-104.7401 8,-104.7401 8,-20 8,-20 8,-14 14,-8 20,-8"/>
</g>
<g id="clust2" class="cluster">
<title>cluster_Create_tomo_circuits</title>
<path fill="#808080" fill-opacity="0.094118" stroke="#000000" d="M212,-16C212,-16 722,-16 722,-16 728,-16 734,-22 734,-28 734,-28 734,-96.7401 734,-96.7401 734,-102.7401 728,-108.7401 722,-108.7401 722,-108.7401 212,-108.7401 212,-108.7401 206,-108.7401 200,-102.7401 200,-96.7401 200,-96.7401 200,-28 200,-28 200,-22 206,-16 212,-16"/>
<text text-anchor="middle" x="467" y="-93.5401" font-family="Times,serif" font-size="14.00" fill="#000000">Create_tomo_circuits</text>
</g>
<!-- Create_tomo_circuits -->
<g id="node1" class="node">
<title>Create_tomo_circuits</title>
<ellipse fill="#ffffff" fill-opacity="0.698039" stroke="#000000" cx="103" cy="-50.8701" rx="87.1846" ry="18"/>
<text text-anchor="middle" x="103" y="-47.1701" font-family="Times,serif" font-size="14.00" fill="#000000">Create_tomo_circuits</text>
</g>
<!-- Create_tomo_circuits__create_tomo_circuits -->
<g id="node2" class="node">
<title>Create_tomo_circuits__create_tomo_circuits</title>
<ellipse fill="#fecccc" fill-opacity="0.698039" stroke="#000000" cx="601" cy="-50.8701" rx="125.316" ry="26.7407"/>
<text text-anchor="middle" x="601" y="-54.6701" font-family="Times,serif" font-size="14.00" fill="#000000">create_tomo_circuits</text>
<text text-anchor="middle" x="601" y="-39.6701" font-family="Times,serif" font-size="14.00" fill="#000000">(Create_tomo_circuits.py:12)</text>
</g>
<!-- Create_tomo_circuits__extract_data -->
<g id="node3" class="node">
<title>Create_tomo_circuits__extract_data</title>
<ellipse fill="#fecccc" fill-opacity="0.698039" stroke="#000000" cx="333" cy="-50.8701" rx="125.316" ry="26.7407"/>
<text text-anchor="middle" x="333" y="-54.6701" font-family="Times,serif" font-size="14.00" fill="#000000">extract_data</text>
<text text-anchor="middle" x="333" y="-39.6701" font-family="Times,serif" font-size="14.00" fill="#000000">(Create_tomo_circuits.py:29)</text>
</g>
</g>
</svg>
