<?xml version="1.0" encoding="UTF-8" standalone="no"?>
<!DOCTYPE svg PUBLIC "-//W3C//DTD SVG 1.1//EN"
 "http://www.w3.org/Graphics/SVG/1.1/DTD/svg11.dtd">
<!-- Generated by graphviz version 2.40.1 (20161225.0304)
 -->
<!-- Title: G Pages: 1 -->
<svg width="2679pt" height="133pt"
 viewBox="0.00 0.00 2679.00 132.74" xmlns="http://www.w3.org/2000/svg" xmlns:xlink="http://www.w3.org/1999/xlink">
<g id="graph0" class="graph" transform="scale(1 1) rotate(0) translate(4 128.7401)">
<title>G</title>
<polygon fill="#ffffff" stroke="transparent" points="-4,4 -4,-128.7401 2675,-128.7401 2675,4 -4,4"/>
<g id="clust1" class="cluster">
<title>cluster_G</title>
<path fill="#808080" fill-opacity="0.094118" stroke="#000000" d="M20,-8C20,-8 2651,-8 2651,-8 2657,-8 2663,-14 2663,-20 2663,-20 2663,-104.7401 2663,-104.7401 2663,-110.7401 2657,-116.7401 2651,-116.7401 2651,-116.7401 20,-116.7401 20,-116.7401 14,-116.7401 8,-110.7401 8,-104.7401 8,-104.7401 8,-20 8,-20 8,-14 14,-8 20,-8"/>
</g>
<g id="clust2" class="cluster">
<title>cluster_Data_storage</title>
<path fill="#808080" fill-opacity="0.094118" stroke="#000000" d="M152,-16C152,-16 2643,-16 2643,-16 2649,-16 2655,-22 2655,-28 2655,-28 2655,-96.7401 2655,-96.7401 2655,-102.7401 2649,-108.7401 2643,-108.7401 2643,-108.7401 152,-108.7401 152,-108.7401 146,-108.7401 140,-102.7401 140,-96.7401 140,-96.7401 140,-28 140,-28 140,-22 146,-16 152,-16"/>
<text text-anchor="middle" x="1397.5" y="-93.5401" font-family="Times,serif" font-size="14.00" fill="#000000">Data_storage</text>
</g>
<!-- Data_storage -->
<g id="node1" class="node">
<title>Data_storage</title>
<ellipse fill="#ffffff" fill-opacity="0.698039" stroke="#000000" cx="73" cy="-50.8701" rx="57.3905" ry="18"/>
<text text-anchor="middle" x="73" y="-47.1701" font-family="Times,serif" font-size="14.00" fill="#000000">Data_storage</text>
</g>
<!-- Data_storage__load_chi_meas -->
<g id="node2" class="node">
<title>Data_storage__load_chi_meas</title>
<ellipse fill="#fecccc" fill-opacity="0.698039" stroke="#000000" cx="2549" cy="-50.8701" rx="97.6615" ry="26.7407"/>
<text text-anchor="middle" x="2549" y="-54.6701" font-family="Times,serif" font-size="14.00" fill="#000000">load_chi_meas</text>
<text text-anchor="middle" x="2549" y="-39.6701" font-family="Times,serif" font-size="14.00" fill="#000000">(Data_storage.py:190)</text>
</g>
<!-- Data_storage__load_chi_meas_last -->
<g id="node3" class="node">
<title>Data_storage__load_chi_meas_last</title>
<ellipse fill="#fecccc" fill-opacity="0.698039" stroke="#000000" cx="2336" cy="-50.8701" rx="97.6615" ry="26.7407"/>
<text text-anchor="middle" x="2336" y="-54.6701" font-family="Times,serif" font-size="14.00" fill="#000000">load_chi_meas_last</text>
<text text-anchor="middle" x="2336" y="-39.6701" font-family="Times,serif" font-size="14.00" fill="#000000">(Data_storage.py:212)</text>
</g>
<!-- Data_storage__load_jobdata -->
<g id="node4" class="node">
<title>Data_storage__load_jobdata</title>
<ellipse fill="#fecccc" fill-opacity="0.698039" stroke="#000000" cx="2128" cy="-50.8701" rx="92.7622" ry="26.7407"/>
<text text-anchor="middle" x="2128" y="-54.6701" font-family="Times,serif" font-size="14.00" fill="#000000">load_jobdata</text>
<text text-anchor="middle" x="2128" y="-39.6701" font-family="Times,serif" font-size="14.00" fill="#000000">(Data_storage.py:85)</text>
</g>
<!-- Data_storage__load_last -->
<g id="node5" class="node">
<title>Data_storage__load_last</title>
<ellipse fill="#fecccc" fill-opacity="0.698039" stroke="#000000" cx="1920" cy="-50.8701" rx="97.6615" ry="26.7407"/>
<text text-anchor="middle" x="1920" y="-54.6701" font-family="Times,serif" font-size="14.00" fill="#000000">load_last</text>
<text text-anchor="middle" x="1920" y="-39.6701" font-family="Times,serif" font-size="14.00" fill="#000000">(Data_storage.py:122)</text>
</g>
<!-- Data_storage__load_results -->
<g id="node6" class="node">
<title>Data_storage__load_results</title>
<ellipse fill="#fecccc" fill-opacity="0.698039" stroke="#000000" cx="1707" cy="-50.8701" rx="97.6615" ry="26.7407"/>
<text text-anchor="middle" x="1707" y="-54.6701" font-family="Times,serif" font-size="14.00" fill="#000000">load_results</text>
<text text-anchor="middle" x="1707" y="-39.6701" font-family="Times,serif" font-size="14.00" fill="#000000">(Data_storage.py:149)</text>
</g>
<!-- Data_storage__load_tomo_data -->
<g id="node7" class="node">
<title>Data_storage__load_tomo_data</title>
<ellipse fill="#fecccc" fill-opacity="0.698039" stroke="#000000" cx="1499" cy="-50.8701" rx="92.7622" ry="26.7407"/>
<text text-anchor="middle" x="1499" y="-54.6701" font-family="Times,serif" font-size="14.00" fill="#000000">load_tomo_data</text>
<text text-anchor="middle" x="1499" y="-39.6701" font-family="Times,serif" font-size="14.00" fill="#000000">(Data_storage.py:29)</text>
</g>
<!-- Data_storage__save_chi_meas -->
<g id="node8" class="node">
<title>Data_storage__save_chi_meas</title>
<ellipse fill="#fecccc" fill-opacity="0.698039" stroke="#000000" cx="1291" cy="-50.8701" rx="97.6615" ry="26.7407"/>
<text text-anchor="middle" x="1291" y="-54.6701" font-family="Times,serif" font-size="14.00" fill="#000000">save_chi_meas</text>
<text text-anchor="middle" x="1291" y="-39.6701" font-family="Times,serif" font-size="14.00" fill="#000000">(Data_storage.py:173)</text>
</g>
<!-- Data_storage__save_chi_meas_last -->
<g id="node9" class="node">
<title>Data_storage__save_chi_meas_last</title>
<ellipse fill="#fecccc" fill-opacity="0.698039" stroke="#000000" cx="1078" cy="-50.8701" rx="97.6615" ry="26.7407"/>
<text text-anchor="middle" x="1078" y="-54.6701" font-family="Times,serif" font-size="14.00" fill="#000000">save_chi_meas_last</text>
<text text-anchor="middle" x="1078" y="-39.6701" font-family="Times,serif" font-size="14.00" fill="#000000">(Data_storage.py:204)</text>
</g>
<!-- Data_storage__save_jobdata -->
<g id="node10" class="node">
<title>Data_storage__save_jobdata</title>
<ellipse fill="#fecccc" fill-opacity="0.698039" stroke="#000000" cx="870" cy="-50.8701" rx="92.7622" ry="26.7407"/>
<text text-anchor="middle" x="870" y="-54.6701" font-family="Times,serif" font-size="14.00" fill="#000000">save_jobdata</text>
<text text-anchor="middle" x="870" y="-39.6701" font-family="Times,serif" font-size="14.00" fill="#000000">(Data_storage.py:51)</text>
</g>
<!-- Data_storage__save_last -->
<g id="node11" class="node">
<title>Data_storage__save_last</title>
<ellipse fill="#fecccc" fill-opacity="0.698039" stroke="#000000" cx="662" cy="-50.8701" rx="97.6615" ry="26.7407"/>
<text text-anchor="middle" x="662" y="-54.6701" font-family="Times,serif" font-size="14.00" fill="#000000">save_last</text>
<text text-anchor="middle" x="662" y="-39.6701" font-family="Times,serif" font-size="14.00" fill="#000000">(Data_storage.py:109)</text>
</g>
<!-- Data_storage__save_results -->
<g id="node12" class="node">
<title>Data_storage__save_results</title>
<ellipse fill="#fecccc" fill-opacity="0.698039" stroke="#000000" cx="449" cy="-50.8701" rx="97.6615" ry="26.7407"/>
<text text-anchor="middle" x="449" y="-54.6701" font-family="Times,serif" font-size="14.00" fill="#000000">save_results</text>
<text text-anchor="middle" x="449" y="-39.6701" font-family="Times,serif" font-size="14.00" fill="#000000">(Data_storage.py:130)</text>
</g>
<!-- Data_storage__save_tomo_data -->
<g id="node13" class="node">
<title>Data_storage__save_tomo_data</title>
<ellipse fill="#fecccc" fill-opacity="0.698039" stroke="#000000" cx="241" cy="-50.8701" rx="92.7622" ry="26.7407"/>
<text text-anchor="middle" x="241" y="-54.6701" font-family="Times,serif" font-size="14.00" fill="#000000">save_tomo_data</text>
<text text-anchor="middle" x="241" y="-39.6701" font-family="Times,serif" font-size="14.00" fill="#000000">(Data_storage.py:13)</text>
</g>
</g>
</svg>
