<?xml version="1.0" encoding="UTF-8" standalone="no"?>
<!DOCTYPE svg PUBLIC "-//W3C//DTD SVG 1.1//EN"
 "http://www.w3.org/Graphics/SVG/1.1/DTD/svg11.dtd">
<!-- Generated by graphviz version 2.40.1 (20161225.0304)
 -->
<!-- Title: G Pages: 1 -->
<svg width="288pt" height="133pt"
 viewBox="0.00 0.00 288.00 132.74" xmlns="http://www.w3.org/2000/svg" xmlns:xlink="http://www.w3.org/1999/xlink">
<g id="graph0" class="graph" transform="scale(1 1) rotate(0) translate(4 128.7401)">
<title>G</title>
<polygon fill="#ffffff" stroke="transparent" points="-4,4 -4,-128.7401 284,-128.7401 284,4 -4,4"/>
<g id="clust1" class="cluster">
<title>cluster_G</title>
<path fill="#808080" fill-opacity="0.094118" stroke="#000000" d="M20,-8C20,-8 260,-8 260,-8 266,-8 272,-14 272,-20 272,-20 272,-104.7401 272,-104.7401 272,-110.7401 266,-116.7401 260,-116.7401 260,-116.7401 20,-116.7401 20,-116.7401 14,-116.7401 8,-110.7401 8,-104.7401 8,-104.7401 8,-20 8,-20 8,-14 14,-8 20,-8"/>
</g>
<g id="clust2" class="cluster">
<title>cluster_Plotting</title>
<path fill="#808080" fill-opacity="0.094118" stroke="#000000" d="M114,-16C114,-16 252,-16 252,-16 258,-16 264,-22 264,-28 264,-28 264,-96.7401 264,-96.7401 264,-102.7401 258,-108.7401 252,-108.7401 252,-108.7401 114,-108.7401 114,-108.7401 108,-108.7401 102,-102.7401 102,-96.7401 102,-96.7401 102,-28 102,-28 102,-22 108,-16 114,-16"/>
<text text-anchor="middle" x="183" y="-93.5401" font-family="Times,serif" font-size="14.00" fill="#000000">Plotting</text>
</g>
<!-- Plotting -->
<g id="node1" class="node">
<title>Plotting</title>
<ellipse fill="#ffffff" fill-opacity="0.698039" stroke="#000000" cx="54" cy="-50.8701" rx="38.1938" ry="18"/>
<text text-anchor="middle" x="54" y="-47.1701" font-family="Times,serif" font-size="14.00" fill="#000000">Plotting</text>
</g>
<!-- Plotting__plot_city -->
<g id="node2" class="node">
<title>Plotting__plot_city</title>
<ellipse fill="#fecccc" fill-opacity="0.698039" stroke="#000000" cx="183" cy="-50.8701" rx="72.6644" ry="26.7407"/>
<text text-anchor="middle" x="183" y="-54.6701" font-family="Times,serif" font-size="14.00" fill="#000000">plot_city</text>
<text text-anchor="middle" x="183" y="-39.6701" font-family="Times,serif" font-size="14.00" fill="#000000">(Plotting.py:17)</text>
</g>
</g>
</svg>
