<?xml version="1.0" encoding="UTF-8" standalone="no"?>
<!DOCTYPE svg PUBLIC "-//W3C//DTD SVG 1.1//EN"
 "http://www.w3.org/Graphics/SVG/1.1/DTD/svg11.dtd">
<!-- Generated by graphviz version 2.40.1 (20161225.0304)
 -->
<!-- Title: G Pages: 1 -->
<svg width="2121pt" height="133pt"
 viewBox="0.00 0.00 2121.00 132.74" xmlns="http://www.w3.org/2000/svg" xmlns:xlink="http://www.w3.org/1999/xlink">
<g id="graph0" class="graph" transform="scale(1 1) rotate(0) translate(4 128.7401)">
<title>G</title>
<polygon fill="#ffffff" stroke="transparent" points="-4,4 -4,-128.7401 2117,-128.7401 2117,4 -4,4"/>
<g id="clust1" class="cluster">
<title>cluster_G</title>
<path fill="#808080" fill-opacity="0.094118" stroke="#000000" d="M20,-8C20,-8 2093,-8 2093,-8 2099,-8 2105,-14 2105,-20 2105,-20 2105,-104.7401 2105,-104.7401 2105,-110.7401 2099,-116.7401 2093,-116.7401 2093,-116.7401 20,-116.7401 20,-116.7401 14,-116.7401 8,-110.7401 8,-104.7401 8,-104.7401 8,-20 8,-20 8,-14 14,-8 20,-8"/>
</g>
<g id="clust2" class="cluster">
<title>cluster_results_gathering</title>
<path fill="#808080" fill-opacity="0.094118" stroke="#000000" d="M181,-16C181,-16 2085,-16 2085,-16 2091,-16 2097,-22 2097,-28 2097,-28 2097,-96.7401 2097,-96.7401 2097,-102.7401 2091,-108.7401 2085,-108.7401 2085,-108.7401 181,-108.7401 181,-108.7401 175,-108.7401 169,-102.7401 169,-96.7401 169,-96.7401 169,-28 169,-28 169,-22 175,-16 181,-16"/>
<text text-anchor="middle" x="1133" y="-93.5401" font-family="Times,serif" font-size="14.00" fill="#000000">results_gathering</text>
</g>
<!-- results_gathering -->
<g id="node1" class="node">
<title>results_gathering</title>
<ellipse fill="#ffffff" fill-opacity="0.698039" stroke="#000000" cx="87" cy="-50.8701" rx="71.4873" ry="18"/>
<text text-anchor="middle" x="87" y="-47.1701" font-family="Times,serif" font-size="14.00" fill="#000000">results_gathering</text>
</g>
<!-- results_gathering__cancel_jobs_from_jobids -->
<g id="node2" class="node">
<title>results_gathering__cancel_jobs_from_jobids</title>
<ellipse fill="#fecccc" fill-opacity="0.698039" stroke="#000000" cx="1980" cy="-50.8701" rx="108.789" ry="26.7407"/>
<text text-anchor="middle" x="1980" y="-54.6701" font-family="Times,serif" font-size="14.00" fill="#000000">cancel_jobs_from_jobids</text>
<text text-anchor="middle" x="1980" y="-39.6701" font-family="Times,serif" font-size="14.00" fill="#000000">(results_gathering.py:45)</text>
</g>
<!-- results_gathering__get_calibration_from_jobids -->
<g id="node3" class="node">
<title>results_gathering__get_calibration_from_jobids</title>
<ellipse fill="#fecccc" fill-opacity="0.698039" stroke="#000000" cx="1732" cy="-50.8701" rx="120.8306" ry="26.7407"/>
<text text-anchor="middle" x="1732" y="-54.6701" font-family="Times,serif" font-size="14.00" fill="#000000">get_calibration_from_jobids</text>
<text text-anchor="middle" x="1732" y="-39.6701" font-family="Times,serif" font-size="14.00" fill="#000000">(results_gathering.py:31)</text>
</g>
<!-- results_gathering__get_jobids_from_file -->
<g id="node4" class="node">
<title>results_gathering__get_jobids_from_file</title>
<ellipse fill="#fecccc" fill-opacity="0.698039" stroke="#000000" cx="1485" cy="-50.8701" rx="108.375" ry="26.7407"/>
<text text-anchor="middle" x="1485" y="-54.6701" font-family="Times,serif" font-size="14.00" fill="#000000">get_jobids_from_file</text>
<text text-anchor="middle" x="1485" y="-39.6701" font-family="Times,serif" font-size="14.00" fill="#000000">(results_gathering.py:78)</text>
</g>
<!-- results_gathering__get_last_jobids -->
<g id="node5" class="node">
<title>results_gathering__get_last_jobids</title>
<ellipse fill="#fecccc" fill-opacity="0.698039" stroke="#000000" cx="1246" cy="-50.8701" rx="113.2743" ry="26.7407"/>
<text text-anchor="middle" x="1246" y="-54.6701" font-family="Times,serif" font-size="14.00" fill="#000000">get_last_jobids</text>
<text text-anchor="middle" x="1246" y="-39.6701" font-family="Times,serif" font-size="14.00" fill="#000000">(results_gathering.py:117)</text>
</g>
<!-- results_gathering__get_last_jobids_and_data -->
<g id="node6" class="node">
<title>results_gathering__get_last_jobids_and_data</title>
<ellipse fill="#fecccc" fill-opacity="0.698039" stroke="#000000" cx="1002" cy="-50.8701" rx="113.2743" ry="26.7407"/>
<text text-anchor="middle" x="1002" y="-54.6701" font-family="Times,serif" font-size="14.00" fill="#000000">get_last_jobids_and_data</text>
<text text-anchor="middle" x="1002" y="-39.6701" font-family="Times,serif" font-size="14.00" fill="#000000">(results_gathering.py:101)</text>
</g>
<!-- results_gathering__get_results_from_jobids -->
<g id="node7" class="node">
<title>results_gathering__get_results_from_jobids</title>
<ellipse fill="#fecccc" fill-opacity="0.698039" stroke="#000000" cx="763" cy="-50.8701" rx="108.375" ry="26.7407"/>
<text text-anchor="middle" x="763" y="-54.6701" font-family="Times,serif" font-size="14.00" fill="#000000">get_results_from_jobids</text>
<text text-anchor="middle" x="763" y="-39.6701" font-family="Times,serif" font-size="14.00" fill="#000000">(results_gathering.py:15)</text>
</g>
<!-- results_gathering__get_status_from_jobids -->
<g id="node8" class="node">
<title>results_gathering__get_status_from_jobids</title>
<ellipse fill="#fecccc" fill-opacity="0.698039" stroke="#000000" cx="524" cy="-50.8701" rx="113.2743" ry="26.7407"/>
<text text-anchor="middle" x="524" y="-54.6701" font-family="Times,serif" font-size="14.00" fill="#000000">get_status_from_jobids</text>
<text text-anchor="middle" x="524" y="-39.6701" font-family="Times,serif" font-size="14.00" fill="#000000">(results_gathering.py:128)</text>
</g>
<!-- results_gathering__get_tomoset_from_file -->
<g id="node9" class="node">
<title>results_gathering__get_tomoset_from_file</title>
<ellipse fill="#fecccc" fill-opacity="0.698039" stroke="#000000" cx="285" cy="-50.8701" rx="108.375" ry="26.7407"/>
<text text-anchor="middle" x="285" y="-54.6701" font-family="Times,serif" font-size="14.00" fill="#000000">get_tomoset_from_file</text>
<text text-anchor="middle" x="285" y="-39.6701" font-family="Times,serif" font-size="14.00" fill="#000000">(results_gathering.py:59)</text>
</g>
</g>
</svg>
