<?xml version="1.0" encoding="UTF-8" standalone="no"?>
<!DOCTYPE svg PUBLIC "-//W3C//DTD SVG 1.1//EN"
 "http://www.w3.org/Graphics/SVG/1.1/DTD/svg11.dtd">
<!-- Generated by graphviz version 2.40.1 (20161225.0304)
 -->
<!-- Title: G Pages: 1 -->
<svg width="2062pt" height="222pt"
 viewBox="0.00 0.00 2062.00 222.48" xmlns="http://www.w3.org/2000/svg" xmlns:xlink="http://www.w3.org/1999/xlink">
<g id="graph0" class="graph" transform="scale(1 1) rotate(0) translate(4 218.4802)">
<title>G</title>
<polygon fill="#ffffff" stroke="transparent" points="-4,4 -4,-218.4802 2058,-218.4802 2058,4 -4,4"/>
<g id="clust1" class="cluster">
<title>cluster_G</title>
<path fill="#808080" fill-opacity="0.094118" stroke="#000000" d="M20,-8C20,-8 2034,-8 2034,-8 2040,-8 2046,-14 2046,-20 2046,-20 2046,-194.4802 2046,-194.4802 2046,-200.4802 2040,-206.4802 2034,-206.4802 2034,-206.4802 20,-206.4802 20,-206.4802 14,-206.4802 8,-200.4802 8,-194.4802 8,-194.4802 8,-20 8,-20 8,-14 14,-8 20,-8"/>
</g>
<g id="clust2" class="cluster">
<title>cluster_Analysis</title>
<path fill="#808080" fill-opacity="0.094118" stroke="#000000" d="M121,-16C121,-16 2026,-16 2026,-16 2032,-16 2038,-22 2038,-28 2038,-28 2038,-186.4802 2038,-186.4802 2038,-192.4802 2032,-198.4802 2026,-198.4802 2026,-198.4802 121,-198.4802 121,-198.4802 115,-198.4802 109,-192.4802 109,-186.4802 109,-186.4802 109,-28 109,-28 109,-22 115,-16 121,-16"/>
<text text-anchor="middle" x="1073.5" y="-183.2802" font-family="Times,serif" font-size="14.00" fill="#000000">Analysis</text>
</g>
<!-- Analysis -->
<g id="node1" class="node">
<title>Analysis</title>
<ellipse fill="#ffffff" fill-opacity="0.698039" stroke="#000000" cx="58" cy="-140.6102" rx="41.6928" ry="18"/>
<text text-anchor="middle" x="58" y="-136.9102" font-family="Times,serif" font-size="14.00" fill="#000000">Analysis</text>
</g>
<!-- Analysis__check_TP -->
<g id="node2" class="node">
<title>Analysis__check_TP</title>
<ellipse fill="#fecccc" fill-opacity="0.698039" stroke="#000000" cx="1954" cy="-140.6102" rx="75.8212" ry="26.7407"/>
<text text-anchor="middle" x="1954" y="-144.4102" font-family="Times,serif" font-size="14.00" fill="#000000">check_TP</text>
<text text-anchor="middle" x="1954" y="-129.4102" font-family="Times,serif" font-size="14.00" fill="#000000">(Analysis.py:64)</text>
</g>
<!-- Analysis__get_TPsum -->
<g id="node7" class="node">
<title>Analysis__get_TPsum</title>
<ellipse fill="#fecccc" fill-opacity="0.698039" stroke="#000000" cx="1954" cy="-50.8701" rx="75.8212" ry="26.7407"/>
<text text-anchor="middle" x="1954" y="-54.6701" font-family="Times,serif" font-size="14.00" fill="#000000">get_TPsum</text>
<text text-anchor="middle" x="1954" y="-39.6701" font-family="Times,serif" font-size="14.00" fill="#000000">(Analysis.py:55)</text>
</g>
<!-- Analysis__check_TP&#45;&gt;Analysis__get_TPsum -->
<g id="edge1" class="edge">
<title>Analysis__check_TP&#45;&gt;Analysis__get_TPsum</title>
<path fill="none" stroke="#000000" d="M1954,-113.6852C1954,-105.6102 1954,-96.607 1954,-87.9961"/>
<polygon fill="#000000" stroke="#000000" points="1957.5001,-87.776 1954,-77.776 1950.5001,-87.7761 1957.5001,-87.776"/>
</g>
<!-- Analysis__filter_chi_meas -->
<g id="node3" class="node">
<title>Analysis__filter_chi_meas</title>
<ellipse fill="#fecccc" fill-opacity="0.698039" stroke="#000000" cx="1785" cy="-140.6102" rx="75.8212" ry="26.7407"/>
<text text-anchor="middle" x="1785" y="-144.4102" font-family="Times,serif" font-size="14.00" fill="#000000">filter_chi_meas</text>
<text text-anchor="middle" x="1785" y="-129.4102" font-family="Times,serif" font-size="14.00" fill="#000000">(Analysis.py:97)</text>
</g>
<!-- Analysis__filter_meas -->
<g id="node4" class="node">
<title>Analysis__filter_meas</title>
<ellipse fill="#fecccc" fill-opacity="0.698039" stroke="#000000" cx="1611" cy="-140.6102" rx="80.7205" ry="26.7407"/>
<text text-anchor="middle" x="1611" y="-144.4102" font-family="Times,serif" font-size="14.00" fill="#000000">filter_meas</text>
<text text-anchor="middle" x="1611" y="-129.4102" font-family="Times,serif" font-size="14.00" fill="#000000">(Analysis.py:161)</text>
</g>
<!-- Analysis__fit_chi_own -->
<g id="node5" class="node">
<title>Analysis__fit_chi_own</title>
<ellipse fill="#fecccc" fill-opacity="0.698039" stroke="#000000" cx="1437" cy="-140.6102" rx="75.8212" ry="26.7407"/>
<text text-anchor="middle" x="1437" y="-144.4102" font-family="Times,serif" font-size="14.00" fill="#000000">fit_chi_own</text>
<text text-anchor="middle" x="1437" y="-129.4102" font-family="Times,serif" font-size="14.00" fill="#000000">(Analysis.py:24)</text>
</g>
<!-- Analysis__fit_tomodata -->
<g id="node6" class="node">
<title>Analysis__fit_tomodata</title>
<ellipse fill="#fecccc" fill-opacity="0.698039" stroke="#000000" cx="1268" cy="-140.6102" rx="75.8212" ry="26.7407"/>
<text text-anchor="middle" x="1268" y="-144.4102" font-family="Times,serif" font-size="14.00" fill="#000000">fit_tomodata</text>
<text text-anchor="middle" x="1268" y="-129.4102" font-family="Times,serif" font-size="14.00" fill="#000000">(Analysis.py:12)</text>
</g>
<!-- Analysis__get_chi_error -->
<g id="node8" class="node">
<title>Analysis__get_chi_error</title>
<ellipse fill="#fecccc" fill-opacity="0.698039" stroke="#000000" cx="1099" cy="-140.6102" rx="75.8212" ry="26.7407"/>
<text text-anchor="middle" x="1099" y="-144.4102" font-family="Times,serif" font-size="14.00" fill="#000000">get_chi_error</text>
<text text-anchor="middle" x="1099" y="-129.4102" font-family="Times,serif" font-size="14.00" fill="#000000">(Analysis.py:78)</text>
</g>
<!-- Analysis__get_measfiltermat -->
<g id="node9" class="node">
<title>Analysis__get_measfiltermat</title>
<ellipse fill="#fecccc" fill-opacity="0.698039" stroke="#000000" cx="923" cy="-140.6102" rx="82.0488" ry="26.7407"/>
<text text-anchor="middle" x="923" y="-144.4102" font-family="Times,serif" font-size="14.00" fill="#000000">get_measfiltermat</text>
<text text-anchor="middle" x="923" y="-129.4102" font-family="Times,serif" font-size="14.00" fill="#000000">(Analysis.py:128)</text>
</g>
<!-- Analysis__get_measfiltermatind -->
<g id="node10" class="node">
<title>Analysis__get_measfiltermatind</title>
<ellipse fill="#fecccc" fill-opacity="0.698039" stroke="#000000" cx="729" cy="-140.6102" rx="94.0904" ry="26.7407"/>
<text text-anchor="middle" x="729" y="-144.4102" font-family="Times,serif" font-size="14.00" fill="#000000">get_measfiltermatind</text>
<text text-anchor="middle" x="729" y="-129.4102" font-family="Times,serif" font-size="14.00" fill="#000000">(Analysis.py:109)</text>
</g>
<!-- Analysis__get_total_prob -->
<g id="node11" class="node">
<title>Analysis__get_total_prob</title>
<ellipse fill="#fecccc" fill-opacity="0.698039" stroke="#000000" cx="541" cy="-140.6102" rx="75.8212" ry="26.7407"/>
<text text-anchor="middle" x="541" y="-144.4102" font-family="Times,serif" font-size="14.00" fill="#000000">get_total_prob</text>
<text text-anchor="middle" x="541" y="-129.4102" font-family="Times,serif" font-size="14.00" fill="#000000">(Analysis.py:36)</text>
</g>
<!-- Analysis__make_CP -->
<g id="node12" class="node">
<title>Analysis__make_CP</title>
<ellipse fill="#fecccc" fill-opacity="0.698039" stroke="#000000" cx="372" cy="-140.6102" rx="75.8212" ry="26.7407"/>
<text text-anchor="middle" x="372" y="-144.4102" font-family="Times,serif" font-size="14.00" fill="#000000">make_CP</text>
<text text-anchor="middle" x="372" y="-129.4102" font-family="Times,serif" font-size="14.00" fill="#000000">(Analysis.py:46)</text>
</g>
<!-- Analysis__unit_to_choi -->
<g id="node13" class="node">
<title>Analysis__unit_to_choi</title>
<ellipse fill="#fecccc" fill-opacity="0.698039" stroke="#000000" cx="198" cy="-140.6102" rx="80.7205" ry="26.7407"/>
<text text-anchor="middle" x="198" y="-144.4102" font-family="Times,serif" font-size="14.00" fill="#000000">unit_to_choi</text>
<text text-anchor="middle" x="198" y="-129.4102" font-family="Times,serif" font-size="14.00" fill="#000000">(Analysis.py:104)</text>
</g>
</g>
</svg>
