<?xml version="1.0" encoding="UTF-8" standalone="no"?>
<!DOCTYPE svg PUBLIC "-//W3C//DTD SVG 1.1//EN"
 "http://www.w3.org/Graphics/SVG/1.1/DTD/svg11.dtd">
<!-- Generated by graphviz version 2.40.1 (20161225.0304)
 -->
<!-- Title: G Pages: 1 -->
<svg width="597pt" height="312pt"
 viewBox="0.00 0.00 597.00 312.22" xmlns="http://www.w3.org/2000/svg" xmlns:xlink="http://www.w3.org/1999/xlink">
<g id="graph0" class="graph" transform="scale(1 1) rotate(0) translate(4 308.2203)">
<title>G</title>
<polygon fill="#ffffff" stroke="transparent" points="-4,4 -4,-308.2203 593,-308.2203 593,4 -4,4"/>
<g id="clust1" class="cluster">
<title>cluster_G</title>
<path fill="#808080" fill-opacity="0.094118" stroke="#000000" d="M20,-8C20,-8 569,-8 569,-8 575,-8 581,-14 581,-20 581,-20 581,-284.2203 581,-284.2203 581,-290.2203 575,-296.2203 569,-296.2203 569,-296.2203 20,-296.2203 20,-296.2203 14,-296.2203 8,-290.2203 8,-284.2203 8,-284.2203 8,-20 8,-20 8,-14 14,-8 20,-8"/>
</g>
<g id="clust2" class="cluster">
<title>cluster_Paulifunctions</title>
<path fill="#808080" fill-opacity="0.094118" stroke="#000000" d="M160,-16C160,-16 561,-16 561,-16 567,-16 573,-22 573,-28 573,-28 573,-276.2203 573,-276.2203 573,-282.2203 567,-288.2203 561,-288.2203 561,-288.2203 160,-288.2203 160,-288.2203 154,-288.2203 148,-282.2203 148,-276.2203 148,-276.2203 148,-28 148,-28 148,-22 154,-16 160,-16"/>
<text text-anchor="middle" x="360.5" y="-273.0203" font-family="Times,serif" font-size="14.00" fill="#000000">Paulifunctions</text>
</g>
<!-- Paulifunctions -->
<g id="node1" class="node">
<title>Paulifunctions</title>
<ellipse fill="#ffffff" fill-opacity="0.698039" stroke="#000000" cx="78" cy="-230.3503" rx="61.99" ry="18"/>
<text text-anchor="middle" x="78" y="-226.6503" font-family="Times,serif" font-size="14.00" fill="#000000">Paulifunctions</text>
</g>
<!-- Paulifunctions__calc_trace_P1prod -->
<g id="node2" class="node">
<title>Paulifunctions__calc_trace_P1prod</title>
<ellipse fill="#fecccc" fill-opacity="0.698039" stroke="#000000" cx="361" cy="-140.6102" rx="92.7622" ry="26.7407"/>
<text text-anchor="middle" x="361" y="-144.4102" font-family="Times,serif" font-size="14.00" fill="#000000">calc_trace_P1prod</text>
<text text-anchor="middle" x="361" y="-129.4102" font-family="Times,serif" font-size="14.00" fill="#000000">(Paulifunctions.py:9)</text>
</g>
<!-- Paulifunctions__kron -->
<g id="node4" class="node">
<title>Paulifunctions__kron</title>
<ellipse fill="#fecccc" fill-opacity="0.698039" stroke="#000000" cx="254" cy="-50.8701" rx="97.6615" ry="26.7407"/>
<text text-anchor="middle" x="254" y="-54.6701" font-family="Times,serif" font-size="14.00" fill="#000000">kron</text>
<text text-anchor="middle" x="254" y="-39.6701" font-family="Times,serif" font-size="14.00" fill="#000000">(Paulifunctions.py:52)</text>
</g>
<!-- Paulifunctions__calc_trace_P1prod&#45;&gt;Paulifunctions__kron -->
<g id="edge1" class="edge">
<title>Paulifunctions__calc_trace_P1prod&#45;&gt;Paulifunctions__kron</title>
<path fill="none" stroke="#000000" d="M330.6243,-115.1343C318.6515,-105.0928 304.7655,-93.4467 292.1295,-82.849"/>
<polygon fill="#000000" stroke="#000000" points="294.3628,-80.154 284.4516,-76.4096 289.8645,-85.5174 294.3628,-80.154"/>
</g>
<!-- Paulifunctions__levi -->
<g id="node5" class="node">
<title>Paulifunctions__levi</title>
<ellipse fill="#fecccc" fill-opacity="0.698039" stroke="#000000" cx="467" cy="-50.8701" rx="97.6615" ry="26.7407"/>
<text text-anchor="middle" x="467" y="-54.6701" font-family="Times,serif" font-size="14.00" fill="#000000">levi</text>
<text text-anchor="middle" x="467" y="-39.6701" font-family="Times,serif" font-size="14.00" fill="#000000">(Paulifunctions.py:59)</text>
</g>
<!-- Paulifunctions__calc_trace_P1prod&#45;&gt;Paulifunctions__levi -->
<g id="edge2" class="edge">
<title>Paulifunctions__calc_trace_P1prod&#45;&gt;Paulifunctions__levi</title>
<path fill="none" stroke="#000000" d="M391.0918,-115.1343C402.7404,-105.2726 416.2171,-93.8631 428.5534,-83.4191"/>
<polygon fill="#000000" stroke="#000000" points="431.0942,-85.854 436.4649,-76.7213 426.5712,-80.5115 431.0942,-85.854"/>
</g>
<!-- Paulifunctions__calc_trace_P2prod -->
<g id="node3" class="node">
<title>Paulifunctions__calc_trace_P2prod</title>
<ellipse fill="#fecccc" fill-opacity="0.698039" stroke="#000000" cx="361" cy="-230.3503" rx="97.6615" ry="26.7407"/>
<text text-anchor="middle" x="361" y="-234.1503" font-family="Times,serif" font-size="14.00" fill="#000000">calc_trace_P2prod</text>
<text text-anchor="middle" x="361" y="-219.1503" font-family="Times,serif" font-size="14.00" fill="#000000">(Paulifunctions.py:36)</text>
</g>
<!-- Paulifunctions__calc_trace_P2prod&#45;&gt;Paulifunctions__calc_trace_P1prod -->
<g id="edge3" class="edge">
<title>Paulifunctions__calc_trace_P2prod&#45;&gt;Paulifunctions__calc_trace_P1prod</title>
<path fill="none" stroke="#000000" d="M361,-203.4253C361,-195.3504 361,-186.3471 361,-177.7362"/>
<polygon fill="#000000" stroke="#000000" points="364.5001,-177.5161 361,-167.5162 357.5001,-177.5162 364.5001,-177.5161"/>
</g>
</g>
</svg>
