<?xml version="1.0" encoding="UTF-8" standalone="no"?>
<!DOCTYPE svg PUBLIC "-//W3C//DTD SVG 1.1//EN"
 "http://www.w3.org/Graphics/SVG/1.1/DTD/svg11.dtd">
<!-- Generated by graphviz version 2.40.1 (20161225.0304)
 -->
<!-- Title: G Pages: 1 -->
<svg width="3900pt" height="312pt"
 viewBox="0.00 0.00 3900.00 312.22" xmlns="http://www.w3.org/2000/svg" xmlns:xlink="http://www.w3.org/1999/xlink">
<g id="graph0" class="graph" transform="scale(1 1) rotate(0) translate(4 308.2203)">
<title>G</title>
<polygon fill="#ffffff" stroke="transparent" points="-4,4 -4,-308.2203 3896,-308.2203 3896,4 -4,4"/>
<g id="clust1" class="cluster">
<title>cluster_G</title>
<path fill="#808080" fill-opacity="0.094118" stroke="#000000" d="M20,-8C20,-8 3872,-8 3872,-8 3878,-8 3884,-14 3884,-20 3884,-20 3884,-284.2203 3884,-284.2203 3884,-290.2203 3878,-296.2203 3872,-296.2203 3872,-296.2203 20,-296.2203 20,-296.2203 14,-296.2203 8,-290.2203 8,-284.2203 8,-284.2203 8,-20 8,-20 8,-14 14,-8 20,-8"/>
</g>
<g id="clust2" class="cluster">
<title>cluster_tomographXy_functions</title>
<path fill="#808080" fill-opacity="0.094118" stroke="#000000" d="M220,-16C220,-16 3864,-16 3864,-16 3870,-16 3876,-22 3876,-28 3876,-28 3876,-276.2203 3876,-276.2203 3876,-282.2203 3870,-288.2203 3864,-288.2203 3864,-288.2203 220,-288.2203 220,-288.2203 214,-288.2203 208,-282.2203 208,-276.2203 208,-276.2203 208,-28 208,-28 208,-22 214,-16 220,-16"/>
<text text-anchor="middle" x="2042" y="-273.0203" font-family="Times,serif" font-size="14.00" fill="#000000">tomography_functions</text>
</g>
<!-- tomographXy_functions -->
<g id="node1" class="node">
<title>tomographXy_functions</title>
<ellipse fill="#ffffff" fill-opacity="0.698039" stroke="#000000" cx="107" cy="-230.3503" rx="90.9839" ry="18"/>
<text text-anchor="middle" x="107" y="-226.6503" font-family="Times,serif" font-size="14.00" fill="#000000">tomography_functions</text>
</g>
<!-- tomographXy_functions__chi_to_choi -->
<g id="node2" class="node">
<title>tomographXy_functions__chi_to_choi</title>
<ellipse fill="#fecccc" fill-opacity="0.698039" stroke="#000000" cx="3734" cy="-230.3503" rx="134.2007" ry="26.7407"/>
<text text-anchor="middle" x="3734" y="-234.1503" font-family="Times,serif" font-size="14.00" fill="#000000">chi_to_choi</text>
<text text-anchor="middle" x="3734" y="-219.1503" font-family="Times,serif" font-size="14.00" fill="#000000">(tomography_functions.py:106)</text>
</g>
<!-- tomographXy_functions__choi_to_chi -->
<g id="node3" class="node">
<title>tomographXy_functions__choi_to_chi</title>
<ellipse fill="#fecccc" fill-opacity="0.698039" stroke="#000000" cx="3452" cy="-230.3503" rx="129.3012" ry="26.7407"/>
<text text-anchor="middle" x="3452" y="-234.1503" font-family="Times,serif" font-size="14.00" fill="#000000">choi_to_chi</text>
<text text-anchor="middle" x="3452" y="-219.1503" font-family="Times,serif" font-size="14.00" fill="#000000">(tomography_functions.py:98)</text>
</g>
<!-- tomographXy_functions__get_A_mat -->
<g id="node4" class="node">
<title>tomographXy_functions__get_A_mat</title>
<ellipse fill="#fecccc" fill-opacity="0.698039" stroke="#000000" cx="3170" cy="-230.3503" rx="134.2007" ry="26.7407"/>
<text text-anchor="middle" x="3170" y="-234.1503" font-family="Times,serif" font-size="14.00" fill="#000000">get_A_mat</text>
<text text-anchor="middle" x="3170" y="-219.1503" font-family="Times,serif" font-size="14.00" fill="#000000">(tomography_functions.py:170)</text>
</g>
<!-- tomographXy_functions__get_A_mat_fast -->
<g id="node5" class="node">
<title>tomographXy_functions__get_A_mat_fast</title>
<ellipse fill="#fecccc" fill-opacity="0.698039" stroke="#000000" cx="2883" cy="-230.3503" rx="134.2007" ry="26.7407"/>
<text text-anchor="middle" x="2883" y="-234.1503" font-family="Times,serif" font-size="14.00" fill="#000000">get_A_mat_fast</text>
<text text-anchor="middle" x="2883" y="-219.1503" font-family="Times,serif" font-size="14.00" fill="#000000">(tomography_functions.py:138)</text>
</g>
<!-- tomographXy_functions__get_A_mat_faster -->
<g id="node6" class="node">
<title>tomographXy_functions__get_A_mat_faster</title>
<ellipse fill="#fecccc" fill-opacity="0.698039" stroke="#000000" cx="2596" cy="-230.3503" rx="134.2007" ry="26.7407"/>
<text text-anchor="middle" x="2596" y="-234.1503" font-family="Times,serif" font-size="14.00" fill="#000000">get_A_mat_faster</text>
<text text-anchor="middle" x="2596" y="-219.1503" font-family="Times,serif" font-size="14.00" fill="#000000">(tomography_functions.py:158)</text>
</g>
<!-- tomographXy_functions__get_canon_basis -->
<g id="node7" class="node">
<title>tomographXy_functions__get_canon_basis</title>
<ellipse fill="#fecccc" fill-opacity="0.698039" stroke="#000000" cx="2180" cy="-50.8701" rx="129.3012" ry="26.7407"/>
<text text-anchor="middle" x="2180" y="-54.6701" font-family="Times,serif" font-size="14.00" fill="#000000">get_canon_basis</text>
<text text-anchor="middle" x="2180" y="-39.6701" font-family="Times,serif" font-size="14.00" fill="#000000">(tomography_functions.py:60)</text>
</g>
<!-- tomographXy_functions__get_canonical_basis -->
<g id="node8" class="node">
<title>tomographXy_functions__get_canonical_basis</title>
<ellipse fill="#fecccc" fill-opacity="0.698039" stroke="#000000" cx="2314" cy="-230.3503" rx="129.3012" ry="26.7407"/>
<text text-anchor="middle" x="2314" y="-234.1503" font-family="Times,serif" font-size="14.00" fill="#000000">get_canonical_basis</text>
<text text-anchor="middle" x="2314" y="-219.1503" font-family="Times,serif" font-size="14.00" fill="#000000">(tomography_functions.py:44)</text>
</g>
<!-- tomographXy_functions__get_choi_basis -->
<g id="node9" class="node">
<title>tomographXy_functions__get_choi_basis</title>
<ellipse fill="#fecccc" fill-opacity="0.698039" stroke="#000000" cx="2037" cy="-230.3503" rx="129.3012" ry="26.7407"/>
<text text-anchor="middle" x="2037" y="-234.1503" font-family="Times,serif" font-size="14.00" fill="#000000">get_choi_basis</text>
<text text-anchor="middle" x="2037" y="-219.1503" font-family="Times,serif" font-size="14.00" fill="#000000">(tomography_functions.py:82)</text>
</g>
<!-- tomographXy_functions__get_max_ent_2n -->
<g id="node12" class="node">
<title>tomographXy_functions__get_max_ent_2n</title>
<ellipse fill="#fecccc" fill-opacity="0.698039" stroke="#000000" cx="2180" cy="-140.6102" rx="129.3012" ry="26.7407"/>
<text text-anchor="middle" x="2180" y="-144.4102" font-family="Times,serif" font-size="14.00" fill="#000000">get_max_ent_2n</text>
<text text-anchor="middle" x="2180" y="-129.4102" font-family="Times,serif" font-size="14.00" fill="#000000">(tomography_functions.py:69)</text>
</g>
<!-- tomographXy_functions__get_choi_basis&#45;&gt;tomographXy_functions__get_max_ent_2n -->
<g id="edge2" class="edge">
<title>tomographXy_functions__get_choi_basis&#45;&gt;tomographXy_functions__get_max_ent_2n</title>
<path fill="none" stroke="#000000" d="M2077.9781,-204.6344C2094.2832,-194.402 2113.1954,-182.5336 2130.275,-171.8153"/>
<polygon fill="#000000" stroke="#000000" points="2132.4061,-174.61 2139.016,-166.3298 2128.6852,-168.6808 2132.4061,-174.61"/>
</g>
<!-- tomographXy_functions__get_lambda_from_meas -->
<g id="node10" class="node">
<title>tomographXy_functions__get_lambda_from_meas</title>
<ellipse fill="#fecccc" fill-opacity="0.698039" stroke="#000000" cx="1755" cy="-230.3503" rx="134.2007" ry="26.7407"/>
<text text-anchor="middle" x="1755" y="-234.1503" font-family="Times,serif" font-size="14.00" fill="#000000">get_lambda_from_meas</text>
<text text-anchor="middle" x="1755" y="-219.1503" font-family="Times,serif" font-size="14.00" fill="#000000">(tomography_functions.py:194)</text>
</g>
<!-- tomographXy_functions__get_lamij_from_PiPj -->
<g id="node11" class="node">
<title>tomographXy_functions__get_lamij_from_PiPj</title>
<ellipse fill="#fecccc" fill-opacity="0.698039" stroke="#000000" cx="1324" cy="-140.6102" rx="134.2007" ry="26.7407"/>
<text text-anchor="middle" x="1324" y="-144.4102" font-family="Times,serif" font-size="14.00" fill="#000000">get_lamij_from_PiPj</text>
<text text-anchor="middle" x="1324" y="-129.4102" font-family="Times,serif" font-size="14.00" fill="#000000">(tomography_functions.py:223)</text>
</g>
<!-- tomographXy_functions__get_lambda_from_meas&#45;&gt;tomographXy_functions__get_lamij_from_PiPj -->
<g id="edge4" class="edge">
<title>tomographXy_functions__get_lambda_from_meas&#45;&gt;tomographXy_functions__get_lamij_from_PiPj</title>
<path fill="none" stroke="#000000" d="M1661.7449,-210.9333C1592.5968,-196.5357 1498.3576,-176.9138 1426.9938,-162.0549"/>
<polygon fill="#000000" stroke="#000000" points="1427.5843,-158.6029 1417.0808,-159.9909 1426.1574,-165.4559 1427.5843,-158.6029"/>
</g>
<!-- tomographXy_functions__get_pauli_list -->
<g id="node15" class="node">
<title>tomographXy_functions__get_pauli_list</title>
<ellipse fill="#fecccc" fill-opacity="0.698039" stroke="#000000" cx="1611" cy="-140.6102" rx="134.2007" ry="26.7407"/>
<text text-anchor="middle" x="1611" y="-144.4102" font-family="Times,serif" font-size="14.00" fill="#000000">get_pauli_list</text>
<text text-anchor="middle" x="1611" y="-129.4102" font-family="Times,serif" font-size="14.00" fill="#000000">(tomography_functions.py:115)</text>
</g>
<!-- tomographXy_functions__get_lambda_from_meas&#45;&gt;tomographXy_functions__get_pauli_list -->
<g id="edge5" class="edge">
<title>tomographXy_functions__get_lambda_from_meas&#45;&gt;tomographXy_functions__get_pauli_list</title>
<path fill="none" stroke="#000000" d="M1713.7354,-204.6344C1697.3162,-194.402 1678.2718,-182.5336 1661.0727,-171.8153"/>
<polygon fill="#000000" stroke="#000000" points="1662.6087,-168.6485 1652.2706,-166.3298 1658.9064,-174.5893 1662.6087,-168.6485"/>
</g>
<!-- tomographXy_functions__rework_data -->
<g id="node18" class="node">
<title>tomographXy_functions__rework_data</title>
<ellipse fill="#fecccc" fill-opacity="0.698039" stroke="#000000" cx="1898" cy="-140.6102" rx="134.2007" ry="26.7407"/>
<text text-anchor="middle" x="1898" y="-144.4102" font-family="Times,serif" font-size="14.00" fill="#000000">rework_data</text>
<text text-anchor="middle" x="1898" y="-129.4102" font-family="Times,serif" font-size="14.00" fill="#000000">(tomography_functions.py:208)</text>
</g>
<!-- tomographXy_functions__get_lambda_from_meas&#45;&gt;tomographXy_functions__rework_data -->
<g id="edge3" class="edge">
<title>tomographXy_functions__get_lambda_from_meas&#45;&gt;tomographXy_functions__rework_data</title>
<path fill="none" stroke="#000000" d="M1795.9781,-204.6344C1812.2832,-194.402 1831.1954,-182.5336 1848.275,-171.8153"/>
<polygon fill="#000000" stroke="#000000" points="1850.4061,-174.61 1857.016,-166.3298 1846.6852,-168.6808 1850.4061,-174.61"/>
</g>
<!-- tomographXy_functions__get_max_ent_2n&#45;&gt;tomographXy_functions__get_canon_basis -->
<g id="edge1" class="edge">
<title>tomographXy_functions__get_max_ent_2n&#45;&gt;tomographXy_functions__get_canon_basis</title>
<path fill="none" stroke="#000000" d="M2180,-113.6852C2180,-105.6102 2180,-96.607 2180,-87.9961"/>
<polygon fill="#000000" stroke="#000000" points="2183.5001,-87.776 2180,-77.776 2176.5001,-87.7761 2183.5001,-87.776"/>
</g>
<!-- tomographXy_functions__get_pauli_basis -->
<g id="node13" class="node">
<title>tomographXy_functions__get_pauli_basis</title>
<ellipse fill="#fecccc" fill-opacity="0.698039" stroke="#000000" cx="1473" cy="-230.3503" rx="129.3012" ry="26.7407"/>
<text text-anchor="middle" x="1473" y="-234.1503" font-family="Times,serif" font-size="14.00" fill="#000000">get_pauli_basis</text>
<text text-anchor="middle" x="1473" y="-219.1503" font-family="Times,serif" font-size="14.00" fill="#000000">(tomography_functions.py:14)</text>
</g>
<!-- tomographXy_functions__get_pauli_basis_unnorm -->
<g id="node14" class="node">
<title>tomographXy_functions__get_pauli_basis_unnorm</title>
<ellipse fill="#fecccc" fill-opacity="0.698039" stroke="#000000" cx="1196" cy="-230.3503" rx="129.3012" ry="26.7407"/>
<text text-anchor="middle" x="1196" y="-234.1503" font-family="Times,serif" font-size="14.00" fill="#000000">get_pauli_basis_unnorm</text>
<text text-anchor="middle" x="1196" y="-219.1503" font-family="Times,serif" font-size="14.00" fill="#000000">(tomography_functions.py:29)</text>
</g>
<!-- tomographXy_functions__get_pauli_names -->
<g id="node16" class="node">
<title>tomographXy_functions__get_pauli_names</title>
<ellipse fill="#fecccc" fill-opacity="0.698039" stroke="#000000" cx="914" cy="-230.3503" rx="134.2007" ry="26.7407"/>
<text text-anchor="middle" x="914" y="-234.1503" font-family="Times,serif" font-size="14.00" fill="#000000">get_pauli_names</text>
<text text-anchor="middle" x="914" y="-219.1503" font-family="Times,serif" font-size="14.00" fill="#000000">(tomography_functions.py:123)</text>
</g>
<!-- tomographXy_functions__get_string_from_prepmeas -->
<g id="node17" class="node">
<title>tomographXy_functions__get_string_from_prepmeas</title>
<ellipse fill="#fecccc" fill-opacity="0.698039" stroke="#000000" cx="627" cy="-230.3503" rx="134.2007" ry="26.7407"/>
<text text-anchor="middle" x="627" y="-234.1503" font-family="Times,serif" font-size="14.00" fill="#000000">get_string_from_prepmeas</text>
<text text-anchor="middle" x="627" y="-219.1503" font-family="Times,serif" font-size="14.00" fill="#000000">(tomography_functions.py:131)</text>
</g>
<!-- tomographXy_functions__unitary_to_choi -->
<g id="node19" class="node">
<title>tomographXy_functions__unitary_to_choi</title>
<ellipse fill="#fecccc" fill-opacity="0.698039" stroke="#000000" cx="345" cy="-230.3503" rx="129.3012" ry="26.7407"/>
<text text-anchor="middle" x="345" y="-234.1503" font-family="Times,serif" font-size="14.00" fill="#000000">unitary_to_choi</text>
<text text-anchor="middle" x="345" y="-219.1503" font-family="Times,serif" font-size="14.00" fill="#000000">(tomography_functions.py:93)</text>
</g>
</g>
</svg>
